<svg xmlns="http://www.w3.org/2000/svg" xmlns:svg="http://www.w3.org/2000/svg" xmlns:xlink="http://www.w3.org/1999/xlink" id="svg1936" x="0" y="0" version="1.1" viewBox="0 0 1000 301.4" xml:space="preserve"><style>.st0{fill-rule:evenodd;clip-rule:evenodd;fill:#bdbcbc}</style><path id="path8" d="M620.4 235.7c-58.1 42.8-142.3 65.7-214.9 65.7-101.7 0-193.2-37.6-262.5-100.2-5.4-4.9-.6-11.6 6-7.8 74.7 43.5 167.2 69.6 262.6 69.6 64.4 0 135.2-13.3 200.3-41 9.9-4.1 18.1 6.5 8.5 13.7" class="st0"/><path id="path10" d="M644.5 208c-7.4-9.5-49.1-4.5-67.8-2.3-5.7.7-6.6-4.3-1.4-7.8 33.2-23.4 87.7-16.6 94.1-8.8 6.4 7.9-1.7 62.5-32.9 88.6-4.8 4-9.4 1.9-7.2-3.4 7-17.5 22.7-56.7 15.2-66.3" class="st0"/><path id="path12" d="M578 32.9V10.2c0-3.4 2.6-5.7 5.7-5.7h101.7c3.3 0 5.9 2.4 5.9 5.7v19.5c0 3.3-2.8 7.5-7.7 14.3L631 119.2c19.6-.5 40.3 2.4 58 12.4 4 2.3 5.1 5.6 5.4 8.8v24.2c0 3.3-3.7 7.2-7.5 5.2-31.3-16.4-72.9-18.2-107.5.2-3.5 1.9-7.2-1.9-7.2-5.2v-23c0-3.7 0-10 3.7-15.6L637 38.6h-53.1c-3.3 0-5.9-2.3-5.9-5.7" class="st0"/><path id="path14" d="M206.9 174.7H176c-3-.2-5.3-2.4-5.5-5.3V10.6c0-3.2 2.7-5.7 6-5.7h28.9c3 .1 5.4 2.4 5.6 5.3V31h.6c7.5-20.1 21.7-29.4 40.7-29.4 19.4 0 31.5 9.4 40.2 29.4C300 10.9 317 1.6 335.2 1.6c13 0 27.2 5.4 35.8 17.4 9.8 13.4 7.8 32.8 7.8 49.8V169c0 3.2-2.7 5.7-6 5.7h-30.9c-3.1-.2-5.6-2.7-5.6-5.7V84.8c0-6.7.6-23.4-.9-29.8-2.3-10.7-9.2-13.7-18.2-13.7-7.5 0-15.3 5-18.5 13-3.2 8-2.9 21.4-2.9 30.4v84.2c0 3.2-2.7 5.7-6 5.7H259c-3.1-.2-5.6-2.7-5.6-5.7V84.7c0-17.7 2.9-43.8-19.1-43.8-22.2 0-21.4 25.4-21.4 43.8v84.2c0 3.2-2.7 5.8-6 5.8" class="st0"/><path id="path16" d="M779 1.5c45.9 0 70.8 39.4 70.8 89.6 0 48.4-27.5 86.9-70.8 86.9-45.1 0-69.6-39.4-69.6-88.6C709.3 40 734.2 1.5 779 1.5m.2 32.5C756.4 34 755 65 755 84.4s-.3 60.9 24 60.9c24 0 25.1-33.4 25.1-53.8 0-13.4-.6-29.4-4.6-42.1C796 38.3 789.1 34 779.2 34" class="st0"/><path id="path18" d="M909.3 174.7h-30.8c-3.1-.2-5.6-2.7-5.6-5.7V10.1c.3-2.9 2.8-5.2 6-5.2h28.7c2.7.1 4.9 2 5.5 4.4v24.3h.6c8.7-21.7 20.8-32.1 42.2-32.1 13.9 0 27.4 5 36.1 18.7 8.1 12.7 8.1 34.1 8.1 49.4v100c-.3 2.8-2.9 5-6 5h-31c-2.8-.2-5.2-2.3-5.5-5V83.4c0-17.4 2-42.8-19.4-42.8-7.5 0-14.5 5-17.9 12.7-4.4 9.7-4.9 19.4-4.9 30.1v85.5c-.1 3.2-2.8 5.8-6.1 5.8" class="st0"/><path id="path28" d="M496.9 98.8c0 12.1.3 22.1-5.8 32.8-4.9 8.7-12.8 14.1-21.4 14.1-11.9 0-18.8-9.1-18.8-22.4 0-26.4 23.6-31.2 46.1-31.2l-.1 6.7m31.2 75.4c-2 1.8-5 2-7.3.7-10.3-8.5-12.1-12.5-17.8-20.6-17 17.3-29 22.5-51 22.5-26.1 0-46.3-16.1-46.3-48.2 0-25.1 13.6-42.2 33-50.6 16.8-7.4 40.3-8.7 58.2-10.8v-4c0-7.4.6-16.1-3.8-22.4-3.7-5.7-11-8.1-17.4-8.1-11.8 0-22.3 6.1-24.9 18.6-.5 2.8-2.6 5.5-5.4 5.7l-30-3.2c-2.5-.6-5.4-2.6-4.6-6.5C417.8 11 450.7 0 480.1 0c15.1 0 34.7 4 46.6 15.4 15.1 14.1 13.6 32.8 13.6 53.2v48.2c0 14.5 6 20.9 11.7 28.7 2 2.8 2.4 6.1-.1 8.2-6.3 5.4-17.5 15.2-23.8 20.5" class="st0"/><path id="path30" d="M91.2 98.8c0 12.1.3 22.1-5.8 32.8-4.9 8.7-12.7 14.1-21.4 14.1-11.9 0-18.8-9.1-18.8-22.4 0-26.4 23.6-31.2 46-31.2v6.7m31.2 75.4c-2 1.8-5 2-7.3.7-10.3-8.5-12.1-12.5-17.8-20.6-17 17.3-29 22.5-51 22.5-26 0-46.3-16.1-46.3-48.2C0 103.5 13.6 86.4 33 78c16.8-7.4 40.3-8.7 58.2-10.8v-4c0-7.4.6-16.1-3.7-22.4-3.8-5.7-11-8.1-17.4-8.1-11.8 0-22.3 6.1-24.9 18.6-.5 2.8-2.6 5.5-5.4 5.7l-30-3.2c-2.5-.6-5.3-2.6-4.6-6.5C12.1 11 45 0 74.4 0c15.1 0 34.7 4 46.6 15.4 15.1 14.1 13.6 32.8 13.6 53.2v48.2c0 14.5 6 20.9 11.7 28.7 2 2.8 2.4 6.1-.1 8.2-6.3 5.4-17.5 15.2-23.8 20.5" class="st0"/></svg>