<svg xmlns="http://www.w3.org/2000/svg" xmlns:svg="http://www.w3.org/2000/svg" xmlns:xlink="http://www.w3.org/1999/xlink" id="svg2" x="0" y="0" version="1.1" viewBox="0 0 1175.9 358.2" xml:space="preserve"><style>.st0{fill:#bdbcbc}</style><g id="layer1" transform="translate(89.312 -287.75)"><g id="g3017" transform="matrix(16.7796 0 0 16.7796 -89.326 287.747)"><path id="path3003" d="M10.5 0C4.7 0 0 4.8 0 10.6c0 5.9 4.7 10.7 10.5 10.7 5.9 0 10.5-4.8 10.5-10.7C21.1 4.8 16.5 0 10.5 0zm0 4.5c4.8 0 8.3 3 9.8 6.1-1.5 3.1-5 6.2-9.8 6.2-4.8 0-8.3-3.1-9.8-6.2 1.5-3 5-6.1 9.8-6.1zm0 .5c-3.1 0-5.7 2.5-5.7 5.6 0 3.2 2.5 5.7 5.7 5.7s5.6-2.5 5.6-5.7c.1-3.1-2.4-5.6-5.6-5.6z" class="st0"/><path id="path3005" d="M31.1 1.3c-5.5 0-9.4 4.2-9.4 9.3v.1c0 5.2 3.9 9.2 9.2 9.2 3.5 0 5.5-1.2 7.4-3.2l-2.5-2.5c-1.4 1.3-2.7 2.1-4.7 2.1-3.1 0-5.2-2.6-5.2-5.7S28.1 5 31.1 5c1.8 0 3.2.8 4.6 2l2.5-3c-1.6-1.6-3.7-2.7-7.1-2.7z" class="st0"/><path id="path3007" d="M39.9 1.6v18h8.5c4 0 6.7-1.6 6.7-4.9v-.1c0-2.4-1.3-3.6-3.4-4.4 1.3-.7 2.4-1.8 2.4-3.9 0-1.2-.4-2.2-1.2-3.1-1-1-2.6-1.6-4.7-1.6h-8.3zM43.7 5h3.9c1.7 0 2.6.7 2.6 1.8v.1c0 1.3-1.1 1.9-2.9 1.9h-3.6V5zm0 7.1h4.6c2 0 2.9.8 2.9 2v.1c0 1.3-1.1 1.9-2.8 1.9h-4.7v-4z" class="st0"/><path id="path3009" d="M62.9 1.3c-3.7 0-6.3 2.2-6.3 5.4 0 3.6 2.3 4.6 6 5.5 3 .8 3.6 1.3 3.6 2.3v.1c0 1-1 1.7-2.6 1.7-2.1 0-3.7-.8-5.4-2.2l-2.3 2.8c2.2 1.9 4.9 2.9 7.6 2.9 3.9 0 6.6-2 6.6-5.6 0-3.1-2.1-4.4-5.7-5.4-3.1-.8-3.9-1.2-3.9-2.4 0-.9.8-1.6 2.3-1.6 1.5 0 3.1.7 4.7 1.8l2-3c-1.8-1.5-4-2.3-6.6-2.3z" class="st0"/></g></g></svg>