<svg xmlns="http://www.w3.org/2000/svg" xmlns:xlink="http://www.w3.org/1999/xlink" viewBox="0 0 554 137"><path fill="#bdbcbc" d="M181.1.3c-20.6 0-34.3 10.8-36.2 27.1-.4 3.8-.9 7.5-1.4 11.3h268.1s.5-4 .9-7.1c2-16.4-4.9-31.2-30.2-31.2 0 0-190.4 0-201.2-.1zM17.4.4l-4.7 38.3h121.6L139 .4H17.4zm408.2 0l-4.7 38.3h131.8s.2-1.4.7-5.9C556.6 7.6 540.4.4 524.7.4h-99.1zm-6.5 52.9L408.8 137h45.5l10.3-83.6-45.5-.1zm86.4 0L495.2 137h45.5L551 53.3h-45.5zm-494.6 0L.7 136.9h121.6l4.5-36.3H50.7L52.5 85h76.1l3.9-31.7H10.9zm130.8 0c-3.3 21.8 7.6 31.7 23.1 31.7h61.5l-1.9 15.7h-88.5l-4.5 36.3h100.2c3.2-.2 25.8-.8 33.4-19.3 2.5-6 4.7-27.4 5.3-31.9 3.5-26.2-14.6-32.4-28.8-32.4-7.8-.1-84.3-.1-99.8-.1zm141.6 0L273 136.9h45.5l6.4-51.9H382c16.2 0 24.9-8.7 26.5-20.4.5-3.8 1-7.5 1.4-11.3H283.3z"/></svg>