<svg xmlns="http://www.w3.org/2000/svg" xmlns:svg="http://www.w3.org/2000/svg" xmlns:xlink="http://www.w3.org/1999/xlink" id="svg8" x="0" y="0" version="1.1" viewBox="0 0 1000 277.3" xml:space="preserve"><style>.st0{fill:#bdbcbc}</style><g id="layer1" transform="translate(260.955 41.214)"><path id="path1139" d="M-261 26.3h59.5l34.6 88.6 35.1-88.6h57.9L-161 236.1h-58.3l23.9-55.6L-261 26.3z" class="st0"/><path id="path1141" d="M-13.5 22.8c-44.7 0-73 40.1-73 80 0 44.9 31 80.5 72.1 80.5 30.7 0 42.2-18.7 42.2-18.7v14.6h51.9V26.3H27.9v13.9S15 22.8-13.5 22.8zm11.1 49.1c20.6 0 31.3 16.3 31.3 31 0 15.9-11.4 31.4-31.3 31.4-16.5 0-31.3-13.5-31.3-30.7-.1-17.5 11.9-31.7 31.3-31.7z" class="st0"/><path id="path1145" d="M97.7 179.2V-41.2H152v81.9s12.9-17.9 39.9-17.9c33 0 52.4 24.6 52.4 59.8v96.6h-53.9V95.8c0-11.9-5.7-23.4-18.5-23.4-13.1 0-19.9 11.7-19.9 23.4v83.4H97.7z" class="st0"/><path id="path1147" d="M336.8 22.8c-51.2 0-81.7 38.9-81.7 80.6 0 47.5 36.9 79.9 81.9 79.9 43.6 0 81.7-31 81.7-79.1 0-52.7-39.9-81.4-81.9-81.4zm.5 49.6c18.1 0 30.6 15.1 30.6 31.1 0 13.7-11.7 30.6-30.6 30.6-17.4 0-30.4-13.9-30.4-30.7 0-16.3 10.8-31 30.4-31z" class="st0"/><path id="path1153" d="M509.1 22.8c-51.2 0-81.7 38.9-81.7 80.6 0 47.5 36.9 79.9 81.9 79.9 43.6 0 81.7-31 81.7-79.1 0-52.7-39.9-81.4-81.9-81.4zm.5 49.6c18.1 0 30.6 15.1 30.6 31.1 0 13.7-11.7 30.6-30.6 30.6-17.4 0-30.4-13.9-30.4-30.7 0-16.3 10.8-31 30.4-31z" class="st0"/><circle id="path1155" cx="633.8" cy="146.4" r="36" class="st0"/><path id="path1157" d="M681.7 97.1h-64.9l57.6-138.3H739L681.7 97.1z" class="st0"/></g></svg>