<svg xmlns="http://www.w3.org/2000/svg" viewBox="0 0 36 36"><defs><style>.cls-1{fill:#9ed8b3;}</style></defs><title>Asset 9</title><g id="Layer_2" data-name="Layer 2"><g id="Layer_1-2" data-name="Layer 1"><path class="cls-1" d="M26.48,9c-1.14.24-6.37,1.56-8.22,5.53-1.57,3.37-.16,6.86.45,8.1a.1.1,0,0,0,.18,0c2-6.76,5.17-9.47,5.17-9.47s-2.4,3-4.34,9.77a.1.1,0,0,0,.11.13,10.18,10.18,0,0,0,6.58-4.47c2.16-3.74.73-8.37.37-9.4a.26.26,0,0,0-.3-.17M18,25A37.06,37.06,0,0,0,5.09,27.23,15.88,15.88,0,1,1,33.88,18a15.77,15.77,0,0,1-3,9.21A37.3,37.3,0,0,0,18,25m7.57,7a.06.06,0,0,1,0,.05l-.05,0H24.8s-.06,0-.08-.06L24,29.78s0,0,0,0,0,0,0,0V32s0,0,0,.05l-.05,0H23.2l-.05,0a.06.06,0,0,1,0-.05V28s0,0,0-.05l.05,0h.73A.08.08,0,0,1,24,28l.76,2.19h0s0,0,0,0V28a.08.08,0,0,1,0-.05l.05,0h.67l.05,0s0,0,0,.05ZM22.26,32h-.7s-.07,0-.08-.07l-.09-.56s0,0,0,0h-.73s0,0,0,0l-.11.57a.06.06,0,0,1-.07.07h-.69s-.07,0-.06-.08l.86-4a.08.08,0,0,1,.08-.06h.79s.07,0,.07.06l.86,4v0s0,.05-.06.05M19,29.23a.06.06,0,0,1,0,.05l0,0h-.68l0,0s0,0,0-.05V29a.43.43,0,0,0-.09-.28.35.35,0,0,0-.26-.11.3.3,0,0,0-.24.11.43.43,0,0,0-.1.28v2a.44.44,0,0,0,.1.29.3.3,0,0,0,.24.11.35.35,0,0,0,.26-.11.44.44,0,0,0,.09-.29v-.46a0,0,0,0,0,0,0h-.26l-.05,0s0,0,0,0V29.9a.08.08,0,0,1,0,0s0,0,.05,0h1a.05.05,0,0,1,0,0s0,0,0,0V31a1,1,0,0,1-.32.8,1.34,1.34,0,0,1-1.69,0,1.06,1.06,0,0,1-.32-.8V29a1.08,1.08,0,0,1,.32-.81,1.17,1.17,0,0,1,.84-.3,1.14,1.14,0,0,1,.85.31A1,1,0,0,1,19,29Zm-3.1-.65a.06.06,0,0,1,0,.05l0,0H14.6a0,0,0,0,0,0,0v.92a0,0,0,0,0,0,0h.7l0,0a.06.06,0,0,1,0,.05v.57s0,0,0,.05l0,0h-.7a0,0,0,0,0,0,0v.93a0,0,0,0,0,0,0h1.22l0,0s0,0,0,0V32a.06.06,0,0,1,0,.05l0,0h-2l-.06,0a.09.09,0,0,1,0-.05V28a.07.07,0,0,1,0-.05l.06,0h2l0,0s0,0,0,.05Zm-3-.56L12.1,32c0,.05,0,.07-.08.07h-.75a.08.08,0,0,1-.08-.07L10.36,28v0s0,0,.07,0h.75a.07.07,0,0,1,.08.06l.4,2.58s0,0,0,0,0,0,0,0L12.08,28s0-.06.07-.06h.74s.07,0,0,.08M30.73,5.27A18,18,0,0,0,5.27,30.73,18,18,0,0,0,30.73,5.27M21,29.19h0l-.27,1.51s0,0,0,0h.51s0,0,0,0L21,29.2h0M12.68,10.76a66.19,66.19,0,0,0,4.5,10.08.06.06,0,0,0,.11-.05,9.39,9.39,0,0,1,.37-6.52,8.3,8.3,0,0,1,1.09-1.71.42.42,0,0,0,.05-.49c-2.14-4-6.7-5.81-7.64-6.16a.21.21,0,0,0-.25.1c-.55,1-3.47,6.84-1.27,11.56,1.86,4,6.09,5.32,7.62,5.69a.1.1,0,0,0,.1-.15c-4.58-6.95-4.68-12.35-4.68-12.35"/></g></g></svg>