<svg xmlns="http://www.w3.org/2000/svg" viewBox="0 0 117.07 82.6"><defs><style>.cls-1{fill:#fff;}.cls-2{fill:#9ed8b3;}.cls-3{fill:#888b8d;}.cls-4{fill:#5e4e64;}</style></defs><g id="Layer_2" data-name="Layer 2"><g id="Layer_1-2" data-name="Layer 1"><path class="cls-1" d="M62,82.6A40.63,40.63,0,1,0,21.37,42,40.63,40.63,0,0,0,62,82.6"/><path class="cls-2" d="M72.85,32.9a2.66,2.66,0,0,0-2.2.77,6.55,6.55,0,0,0-1,3.9,51.43,51.43,0,0,0,.94,9.36,10.85,10.85,0,0,1-.21,4.68,10.33,10.33,0,0,1-2.05,4,9.41,9.41,0,0,1-7.29,3.36,10.87,10.87,0,0,1-5-1.11,8.9,8.9,0,0,1-3.42-3,9.28,9.28,0,0,1-1.5-4.51,11.18,11.18,0,0,1,.93-5.14c1.55-3.72,2.65-6.44,3.28-8.51A12.27,12.27,0,0,0,56,34.11c.1-1.14-.17-1.21-.69-1.21H0V76.47H117.07V32.9Z"/><path class="cls-3" d="M80.19.12A68.82,68.82,0,0,0,62.38,24c-3.19,7.44-2.61,8.25-7.82,22.4C52.87,51,55.78,56,60.79,56c2.38,0,8-1.64,6.35-9.75a43.32,43.32,0,0,1,1.17-21.82A66.38,66.38,0,0,1,80.82.75a.45.45,0,0,0-.63-.63"/><path class="cls-4" d="M28,62.62a.45.45,0,0,1-.29-.09.5.5,0,0,1-.12-.7l16.1-23a.5.5,0,1,1,.82.58l-16.1,23a.51.51,0,0,1-.41.21"/><path class="cls-4" d="M40.07,45.38a.48.48,0,0,1-.38-.17l-5.07-5.9a.5.5,0,0,1,.77-.65l5.06,5.9a.49.49,0,0,1-.05.7.54.54,0,0,1-.33.12"/><path class="cls-4" d="M35.81,51.47a.5.5,0,0,1,0-1l9.64-.69a.51.51,0,1,1,.07,1l-9.64.68h0"/><path class="cls-4" d="M41.34,74.5a.45.45,0,0,1-.27-.08.5.5,0,0,1-.15-.69l8.57-13.49a.49.49,0,0,1,.69-.16.5.5,0,0,1,.16.7L41.76,74.27a.48.48,0,0,1-.42.23"/><path class="cls-4" d="M47.48,64.43a.52.52,0,0,1-.46-.29l-2.43-5.29a.5.5,0,0,1,.91-.42l2.44,5.29a.49.49,0,0,1-.46.71"/><path class="cls-4" d="M45,68.67a.51.51,0,0,1-.48-.35.5.5,0,0,1,.34-.63l8.24-2.52a.5.5,0,0,1,.63.33.51.51,0,0,1-.34.63l-8.24,2.52-.15,0"/><path class="cls-4" d="M73.53,77.76a.5.5,0,0,1-.39-.18L60.92,62.81a.5.5,0,0,1,.78-.64L73.91,76.94a.51.51,0,0,1-.06.71.56.56,0,0,1-.32.11"/><path class="cls-4" d="M66.93,69.78H59.31a.5.5,0,0,1-.51-.5.51.51,0,0,1,.51-.5h7.62a.5.5,0,0,1,.5.5.5.5,0,0,1-.5.5"/><path class="cls-4" d="M64.19,66.48a.43.43,0,0,1-.19,0,.5.5,0,0,1-.27-.66l2-4.67a.5.5,0,0,1,.93.39l-2,4.67a.51.51,0,0,1-.47.31"/><path class="cls-4" d="M80.52,79a.5.5,0,0,1-.5-.45L77.58,55.42a.52.52,0,0,1,.45-.55.5.5,0,0,1,.55.45L81,78.41a.5.5,0,0,1-.45.55h0"/><path class="cls-4" d="M78.35,59.74a.51.51,0,0,1-.31-.11l-4.75-3.9a.5.5,0,0,1-.07-.71.5.5,0,0,1,.7-.07l4.75,3.9a.5.5,0,0,1-.32.89"/><path class="cls-4" d="M79.26,67A.55.55,0,0,1,79,67a.51.51,0,0,1-.18-.69l4.87-8.34a.49.49,0,0,1,.68-.18.51.51,0,0,1,.18.69l-4.87,8.34a.5.5,0,0,1-.43.25"/><path class="cls-4" d="M101.71,48.67a.71.71,0,0,1-.2,0L79.74,39.45a.5.5,0,0,1,.39-.93L101.9,47.7a.5.5,0,0,1,.27.66.51.51,0,0,1-.46.31"/><path class="cls-4" d="M81.11,48.06a.5.5,0,0,1-.23-1l8.79-4.38a.5.5,0,0,1,.67.23.49.49,0,0,1-.22.67L81.33,48a.59.59,0,0,1-.22.05"/><path class="cls-4" d="M77.22,43.57a.48.48,0,0,1-.46-.32A.49.49,0,0,1,77,42.6l6.2-2.48a.51.51,0,0,1,.38.94l-6.21,2.47a.65.65,0,0,1-.19,0"/><path class="cls-4" d="M86.58,42.29a.5.5,0,0,1-.49-.43l-.77-5.63a.5.5,0,0,1,.43-.57.49.49,0,0,1,.56.43l.77,5.63a.49.49,0,0,1-.43.56h-.07"/></g></g></svg>