<svg xmlns="http://www.w3.org/2000/svg" viewBox="0 0 36 36"><defs><style>.cls-1{fill:#9ed8b3;}</style></defs><title>Asset 11</title><g id="Layer_2" data-name="Layer 2"><g id="Layer_1-2" data-name="Layer 1"><path class="cls-1" d="M26.8,20.42A1.45,1.45,0,0,1,28,21.92a1.43,1.43,0,0,1-1.31,1.5,8.72,8.72,0,0,0,.21-2,5.86,5.86,0,0,0-.09-1M13.2,13.64a2.76,2.76,0,0,1,2.14,1.24,2.83,2.83,0,0,1,.56,1.54.24.24,0,0,0,.12.21.23.23,0,0,0,.25,0,5.49,5.49,0,0,1,2.83-1,7.32,7.32,0,0,1,5.57,1.83,5.47,5.47,0,0,1,1.75,4,5.62,5.62,0,0,1-1.7,4.49,7.51,7.51,0,0,1-5,1.44c-2.89,0-4.18-1.53-4.43-3A2.71,2.71,0,0,1,17,21.29a.24.24,0,0,0,.14-.3.22.22,0,0,0-.22-.16l-.08,0a3.16,3.16,0,0,0-2,3.63,3.75,3.75,0,0,0,1.57,2.43H12.74a1.34,1.34,0,0,1-1-.2.57.57,0,0,1-.12-.44c0-.24.24-.62.91-.66a.24.24,0,0,0,.18-.1.24.24,0,0,0,0-.2l-1.47-4.69a.25.25,0,0,0-.23-.17,2.89,2.89,0,0,1-2.7-1.25c-.9-1.47-.07-3.63,1.85-4.82a4.79,4.79,0,0,1,3-.74M16,10.15l0,0c1.32-1.82,2.59-2.6,3-2.34.17.12.31.57.11,1.46a8.85,8.85,0,0,1-3.51,5.13,3,3,0,0,0-1.28-.95,10.34,10.34,0,0,1,1.34-2.79l.33-.48m-.41-.24c-.1.15-.21.3-.31.46a10.9,10.9,0,0,0-1.4,2.9,5,5,0,0,0-.58-.1,3,3,0,0,0-.52,0A10,10,0,0,1,13,10a7.66,7.66,0,0,1,1.07-2.63c.37-.54.77-.84,1-.78.47.11.77,1.37.45,3.31M25,34.58a18,18,0,0,0,5.72-3.85A18,18,0,0,0,34.59,11,18,18,0,0,0,11,1.41,18,18,0,0,0,1.41,25a18.16,18.16,0,0,0,3.86,5.72A18,18,0,0,0,25,34.58"/><path class="cls-1" d="M11.59,15.63a.85.85,0,1,0,.85.85.85.85,0,0,0-.85-.85"/></g></g></svg>