<svg xmlns="http://www.w3.org/2000/svg" viewBox="0 0 53.8 57.31"><defs><style>.cls-1,.cls-2{fill:#9ed8b3;}.cls-2{font-size:6px;font-family:HelveticaNeue-Bold, Helvetica Neue;font-weight:700;}.cls-3{letter-spacing:0.01em;}.cls-4{letter-spacing:0.01em;}.cls-5{letter-spacing:0.01em;}.cls-6{letter-spacing:0.01em;}.cls-7{letter-spacing:0.01em;}.cls-8{letter-spacing:-0.01em;}</style></defs><title>Asset 3</title><g id="Layer_2" data-name="Layer 2"><g id="Layer_1-2" data-name="Layer 1"><path class="cls-1" d="M33,30.19H19.15a1.9,1.9,0,0,1-1.64-2.85l3.4-5.88h2.16a1.76,1.76,0,0,1,3.42,0h4.77l3.4,5.88A1.9,1.9,0,0,1,33,30.19M26.08,17.65h2.39a.35.35,0,0,1,0,.7H26.08a.35.35,0,1,1,0-.7m0-2h2.39a.35.35,0,0,1,0,.7H26.08a.35.35,0,1,1,0-.7m0-2h2.39a.35.35,0,0,1,0,.7H26.08a.35.35,0,0,1,0-.7m0-2h2.39a.35.35,0,0,1,0,.7H26.08a.35.35,0,1,1,0-.7m0-2h2.39a.35.35,0,0,1,0,.7H26.08a.35.35,0,0,1,0-.7m0-2h2.39a.35.35,0,0,1,0,.7H26.08a.35.35,0,1,1,0-.7m4,10.61a2.53,2.53,0,0,1-.34-1.26V5.87h.77a.27.27,0,0,0,0-.53H21.66a.27.27,0,1,0,0,.53h.77V17.2a2.53,2.53,0,0,1-.34,1.26l-5,8.65a2.37,2.37,0,0,0,2,3.55H33a2.37,2.37,0,0,0,2-3.55Z"/><path class="cls-1" d="M35.68,29.83A3,3,0,0,1,33,31.37H19.15a3.08,3.08,0,0,1-2.66-4.62l5-8.65a1.76,1.76,0,0,0,.24-.9V6.58h-.06a1,1,0,0,1,0-1.95h8.85a1,1,0,0,1,0,2h-.06V17.2a1.76,1.76,0,0,0,.24.9l5,8.65a3,3,0,0,1,0,3.08M26.08,0a18,18,0,1,0,18,18,18,18,0,0,0-18-18"/><path class="cls-1" d="M26.08,21.91a1.94,1.94,0,0,0,0-.24.83.83,0,0,0-.06-.21,1.3,1.3,0,0,0-2.44,0,.83.83,0,0,0-.06.21,1,1,0,0,0,0,.24,1.31,1.31,0,0,0,2.61,0"/><path class="cls-1" d="M26.08,26.55a1.31,1.31,0,1,0,1.31,1.3,1.3,1.3,0,0,0-1.31-1.3"/><path class="cls-1" d="M28.43,23a.91.91,0,1,0,0,1.81.91.91,0,0,0,0-1.81"/><text class="cls-2" transform="translate(0 46.42)"><tspan class="cls-3">Su</tspan><tspan class="cls-4" x="7.57" y="0">lf</tspan><tspan class="cls-3" x="11.23" y="0">ate,</tspan><tspan class="cls-5" x="22.13" y="0"> </tspan><tspan class="cls-3" x="23.86" y="0">s</tspan><tspan class="cls-5" x="27.14" y="0">i</tspan><tspan class="cls-6" x="28.74" y="0">l</tspan><tspan class="cls-5" x="30.35" y="0">i</tspan><tspan class="cls-3" x="31.95" y="0">c</tspan><tspan class="cls-4" x="35.45" y="0">o</tspan><tspan class="cls-7" x="39.17" y="0">ne</tspan><tspan class="cls-5" x="46.3" y="0"> </tspan><tspan x="48.02" y="0">&amp; </tspan></text><text class="cls-2" transform="translate(7.59 54.42)"><tspan class="cls-5">p</tspan><tspan class="cls-6" x="3.72" y="0">ara</tspan><tspan class="cls-4" x="13.12" y="0">b</tspan><tspan class="cls-3" x="16.84" y="0">en </tspan><tspan class="cls-4" x="25.69" y="0">f</tspan><tspan class="cls-8" x="27.74" y="0">r</tspan><tspan class="cls-3" x="30.04" y="0">e</tspan><tspan x="33.54" y="0">e</tspan></text></g></g></svg>