<svg xmlns="http://www.w3.org/2000/svg" viewBox="0 0 36 36"><defs><style>.cls-1{fill:#9ed8b3;}</style></defs><title>Asset 10</title><g id="Layer_2" data-name="Layer 2"><g id="Layer_1-2" data-name="Layer 1"><path class="cls-1" d="M24.93,30.19H11.07a1.9,1.9,0,0,1-1.65-2.85l3.4-5.88H15a1.77,1.77,0,0,1,3.43,0h4.77l3.4,5.88a1.9,1.9,0,0,1-1.65,2.85M18,17.65h2.39a.35.35,0,0,1,0,.7H18a.35.35,0,0,1,0-.7m0-2h2.39a.35.35,0,1,1,0,.7H18a.35.35,0,0,1,0-.7m0-2h2.39a.35.35,0,1,1,0,.7H18a.35.35,0,0,1,0-.7m0-2h2.39a.35.35,0,0,1,0,.7H18a.35.35,0,1,1,0-.7m0-2h2.39a.35.35,0,0,1,0,.7H18a.35.35,0,0,1,0-.7m0-2h2.39a.35.35,0,0,1,0,.7H18a.35.35,0,0,1,0-.7m4,10.61a2.53,2.53,0,0,1-.34-1.26V5.87h.77a.27.27,0,1,0,0-.53H13.58a.27.27,0,1,0,0,.53h.77V17.2A2.53,2.53,0,0,1,14,18.46L9,27.11a2.39,2.39,0,0,0,0,2.37,2.36,2.36,0,0,0,2.06,1.18H24.93A2.36,2.36,0,0,0,27,29.48a2.39,2.39,0,0,0,0-2.37Z"/><path class="cls-1" d="M27.6,29.83a3,3,0,0,1-2.67,1.54H11.07A3.08,3.08,0,0,1,8.4,26.75l5-8.65a1.86,1.86,0,0,0,.24-.9V6.58h-.06a1,1,0,1,1,0-1.95h8.84a1,1,0,1,1,0,2h-.06V17.2a1.86,1.86,0,0,0,.24.9l5,8.65a3.08,3.08,0,0,1,0,3.08M18,0A18,18,0,1,0,36,18,18,18,0,0,0,18,0"/><path class="cls-1" d="M18,21.91a1.94,1.94,0,0,0,0-.24l-.06-.21a1.3,1.3,0,0,0-2.45,0l-.06.21a1.94,1.94,0,0,0,0,.24,1.31,1.31,0,0,0,2.61,0"/><path class="cls-1" d="M18,26.55a1.31,1.31,0,1,0,1.31,1.3A1.31,1.31,0,0,0,18,26.55"/><path class="cls-1" d="M20.34,23a.91.91,0,1,0,.91.91.91.91,0,0,0-.91-.91"/></g></g></svg>